<svg width="15" height="16" viewBox="0 0 15 16" fill="none" xmlns="http://www.w3.org/2000/svg">
<path d="M14.0625 1.42037L10.3092 1.42039V0.48595C10.3092 0.226905 10.0995 0.0170898 9.84047 0.0170898C9.58148 0.0170898 9.37172 0.226905 9.37172 0.48595V1.42015H5.62172V0.48595C5.62172 0.226905 5.41195 0.0170898 5.15297 0.0170898C4.89398 0.0170898 4.68422 0.226905 4.68422 0.48595V1.42015H0.9375C0.419766 1.42015 0 1.84002 0 2.35787V14.0794C0 14.5972 0.419766 15.0171 0.9375 15.0171H14.0625C14.5802 15.0171 15 14.5972 15 14.0794V2.35787C15 1.84024 14.5802 1.42037 14.0625 1.42037ZM14.0625 14.0794H0.9375V2.35787H4.68422V2.83025C4.68422 3.08928 4.89398 3.29911 5.15297 3.29911C5.41195 3.29911 5.62172 3.08928 5.62172 2.83025V2.35811H9.37172V2.83048C9.37172 3.08953 9.58148 3.29934 9.84047 3.29934C10.0995 3.29934 10.3092 3.08953 10.3092 2.83048V2.35811H14.0625V14.0794ZM10.7812 7.51555H11.7188C11.9775 7.51555 12.1875 7.3055 12.1875 7.04669V6.10897C12.1875 5.85016 11.9775 5.64011 11.7188 5.64011H10.7812C10.5225 5.64011 10.3125 5.85016 10.3125 6.10897V7.04669C10.3125 7.3055 10.5225 7.51555 10.7812 7.51555ZM10.7812 11.2662H11.7188C11.9775 11.2662 12.1875 11.0564 12.1875 10.7973V9.85962C12.1875 9.60081 11.9775 9.39076 11.7188 9.39076H10.7812C10.5225 9.39076 10.3125 9.60081 10.3125 9.85962V10.7973C10.3125 11.0566 10.5225 11.2662 10.7812 11.2662ZM7.96875 9.39076H7.03125C6.7725 9.39076 6.5625 9.60081 6.5625 9.85962V10.7973C6.5625 11.0564 6.7725 11.2662 7.03125 11.2662H7.96875C8.2275 11.2662 8.4375 11.0564 8.4375 10.7973V9.85962C8.4375 9.60104 8.2275 9.39076 7.96875 9.39076ZM7.96875 5.64011H7.03125C6.7725 5.64011 6.5625 5.85016 6.5625 6.10897V7.04669C6.5625 7.3055 6.7725 7.51555 7.03125 7.51555H7.96875C8.2275 7.51555 8.4375 7.3055 8.4375 7.04669V6.10897C8.4375 5.84993 8.2275 5.64011 7.96875 5.64011ZM4.21875 5.64011H3.28125C3.0225 5.64011 2.8125 5.85016 2.8125 6.10897V7.04669C2.8125 7.3055 3.0225 7.51555 3.28125 7.51555H4.21875C4.4775 7.51555 4.6875 7.3055 4.6875 7.04669V6.10897C4.6875 5.84993 4.4775 5.64011 4.21875 5.64011ZM4.21875 9.39076H3.28125C3.0225 9.39076 2.8125 9.60081 2.8125 9.85962V10.7973C2.8125 11.0564 3.0225 11.2662 3.28125 11.2662H4.21875C4.4775 11.2662 4.6875 11.0564 4.6875 10.7973V9.85962C4.6875 9.60104 4.4775 9.39076 4.21875 9.39076Z" fill="#8C8C8C"/>
</svg>
