<svg width="15" height="19" viewBox="0 0 15 19" fill="none" xmlns="http://www.w3.org/2000/svg">
<path d="M13.9999 8.00246C13.9999 13.0541 7.49994 17.384 7.49994 17.384C7.49994 17.384 0.999939 13.0541 0.999939 8.00246C0.999939 6.2799 1.68476 4.62789 2.90374 3.40986C4.12273 2.19182 5.77603 1.50754 7.49994 1.50754C9.22385 1.50754 10.8771 2.19182 12.0961 3.40986C13.3151 4.62789 13.9999 6.2799 13.9999 8.00246Z" stroke="#858585" stroke-width="2" stroke-linecap="round" stroke-linejoin="round"/>
<path d="M7.4998 10.1674C8.69641 10.1674 9.66646 9.19815 9.66646 8.00247C9.66646 6.80679 8.69641 5.83749 7.4998 5.83749C6.30318 5.83749 5.33313 6.80679 5.33313 8.00247C5.33313 9.19815 6.30318 10.1674 7.4998 10.1674Z" stroke="#858585" stroke-width="2" stroke-linecap="round" stroke-linejoin="round"/>
</svg>
